<?xml version="1.0" encoding="utf-8"?>
<!-- Generator: Adobe Illustrator 22.0.0, SVG Export Plug-In . SVG Version: 6.00 Build 0)  -->
<svg version="1.1" id="Слой_1" xmlns="http://www.w3.org/2000/svg" xmlns:xlink="http://www.w3.org/1999/xlink" x="0px" y="0px"
	 viewBox="0 0 106.4 17.6" style="enable-background:new 0 0 106.4 17.6;" xml:space="preserve">
<style type="text/css">
	.st0{fill:#FFD80E;}
	.st1{fill:#FFFFFF;}
</style>
<g>
	<path class="st0" d="M1.3,15.6c-0.5-0.8-0.7-2-0.7-3.7V5.1c0-1.5,0.3-2.6,0.9-3.3C2,1,2.8,0.6,4,0.6c0.9,0,1.7,0.2,2.2,0.6
		s0.9,1,1.1,1.8c0.2,0.8,0.3,1.8,0.3,3.1H4.7V4.8c0-0.4,0-0.7-0.1-0.9C4.5,3.7,4.3,3.6,4.1,3.6c-0.5,0-0.8,0.4-0.8,1.2v7.7
		c0,0.5,0.1,0.8,0.2,1.1s0.3,0.4,0.6,0.4s0.5-0.1,0.6-0.4s0.2-0.6,0.2-1.1v-2.3H4V7.4h3.4v9.3H6.3l-0.5-1.3c-0.5,1-1.3,1.5-2.3,1.5
		C2.5,16.8,1.8,16.4,1.3,15.6z"/>
	<path class="st0" d="M8.6,16.7V0.8h2.8v5.7h1.3V0.8h2.8v15.9h-2.8V9.5h-1.3v7.2H8.6z"/>
	<path class="st0" d="M16.8,16.7V0.8h5.6v3.1h-2.8v3.1h2.7v3h-2.7v3.6h3v3.1H16.8z"/>
	<path class="st0" d="M24.7,16.7V3.8h-1.7V0.8h6.2v3.1h-1.7v12.8H24.7z"/>
	<path class="st0" d="M31.2,16.7V3.8h-1.7V0.8h6.2v3.1h-1.7v12.8H31.2z"/>
	<path class="st0" d="M37.3,15.6c-0.6-0.8-0.9-1.9-0.9-3.3V4.8c0-1.4,0.3-2.4,0.9-3.1c0.6-0.7,1.5-1,2.6-1s2,0.3,2.6,1
		c0.6,0.7,0.9,1.7,0.9,3.1v7.6c0,1.4-0.3,2.5-0.9,3.3c-0.6,0.8-1.5,1.2-2.6,1.2S37.9,16.4,37.3,15.6z M40.4,13.5
		c0.1-0.2,0.1-0.6,0.1-1V4.7c0-0.3,0-0.6-0.1-0.8c-0.1-0.2-0.2-0.3-0.5-0.3c-0.5,0-0.7,0.4-0.7,1.2v7.8c0,0.5,0,0.8,0.1,1
		c0.1,0.2,0.3,0.4,0.5,0.4C40.1,13.9,40.3,13.8,40.4,13.5z"/>
	<path class="st1" d="M48.3,16.7V0.8h2.8v5.7h1.3V0.8h2.8v15.9h-2.8V9.5h-1.3v7.2H48.3z"/>
	<path class="st1" d="M57.2,15.7c-0.6-0.7-0.8-1.8-0.8-3.3V0.8h2.7v11.5c0,0.5,0,0.9,0.1,1.2c0.1,0.3,0.3,0.4,0.6,0.4
		c0.3,0,0.5-0.1,0.6-0.4c0.1-0.3,0.1-0.7,0.1-1.2V0.8h2.7v11.6c0,1.5-0.3,2.6-0.8,3.3c-0.6,0.7-1.4,1.1-2.6,1.1
		C58.6,16.8,57.8,16.5,57.2,15.7z"/>
	<path class="st1" d="M64.9,15.7C64.3,15,64,13.9,64,12.3v-1.6h2.8v2c0,0.8,0.2,1.2,0.7,1.2c0.3,0,0.4-0.1,0.5-0.3s0.1-0.4,0.1-0.8
		c0-0.5-0.1-0.9-0.2-1.3c-0.1-0.3-0.2-0.6-0.4-0.9c-0.2-0.2-0.5-0.6-0.9-1.1l-1.2-1.4C64.5,7.2,64,6,64,4.8c0-1.4,0.3-2.4,0.8-3.1
		c0.6-0.7,1.4-1.1,2.4-1.1c1.3,0,2.2,0.4,2.7,1.1s0.8,1.9,0.8,3.6H68l0-1.1c0-0.2-0.1-0.4-0.2-0.5c-0.1-0.1-0.2-0.2-0.4-0.2
		c-0.2,0-0.4,0.1-0.5,0.2c-0.1,0.1-0.2,0.3-0.2,0.6c0,0.5,0.3,1.1,0.8,1.6l1.6,1.8c0.4,0.4,0.7,0.8,1,1.2s0.5,0.8,0.6,1.3
		c0.2,0.5,0.2,1.1,0.2,1.8c0,1.6-0.3,2.8-0.8,3.6c-0.5,0.8-1.3,1.2-2.5,1.2C66.4,16.8,65.4,16.5,64.9,15.7z"/>
	<path class="st1" d="M73.1,16.7V3.8h-1.7V0.8h6.2v3.1h-1.7v12.8H73.1z"/>
	<path class="st1" d="M78.4,16.7V0.8h2.8V14h2.9v2.7H78.4z"/>
	<path class="st1" d="M84.9,16.7V0.8h5.6v3.1h-2.8v3.1h2.7v3h-2.7v3.6h3v3.1H84.9z"/>
	<path class="st1" d="M91.6,0.8H96c0.7,0,1.2,0.2,1.6,0.5c0.4,0.4,0.6,0.8,0.8,1.5c0.1,0.6,0.2,1.4,0.2,2.4c0,0.9-0.1,1.6-0.3,2.1
		c-0.2,0.5-0.6,0.9-1.1,1.1c0.4,0.1,0.7,0.3,0.9,0.7s0.3,0.9,0.3,1.6l0,6h-2.8v-6.2c0-0.4-0.1-0.7-0.2-0.9c-0.2-0.1-0.4-0.2-0.8-0.2
		v7.3h-2.9V0.8z M95.2,6.7c0.4,0,0.6-0.5,0.6-1.4c0-0.4,0-0.7,0-0.9s-0.1-0.4-0.2-0.4c-0.1-0.1-0.2-0.1-0.4-0.1h-0.7v2.9H95.2z"/>
	<path class="st1" d="M100,15.7c-0.6-0.7-0.9-1.9-0.9-3.5v-1.6h2.8v2c0,0.8,0.2,1.2,0.7,1.2c0.3,0,0.4-0.1,0.5-0.3s0.1-0.4,0.1-0.8
		c0-0.5-0.1-0.9-0.2-1.3c-0.1-0.3-0.2-0.6-0.4-0.9c-0.2-0.2-0.5-0.6-0.9-1.1l-1.2-1.4c-0.9-1-1.4-2.2-1.4-3.4c0-1.4,0.3-2.4,0.8-3.1
		c0.6-0.7,1.4-1.1,2.4-1.1c1.3,0,2.2,0.4,2.7,1.1s0.8,1.9,0.8,3.6h-2.9l0-1.1c0-0.2-0.1-0.4-0.2-0.5c-0.1-0.1-0.2-0.2-0.4-0.2
		c-0.2,0-0.4,0.1-0.5,0.2c-0.1,0.1-0.2,0.3-0.2,0.6c0,0.5,0.3,1.1,0.8,1.6l1.6,1.8c0.4,0.4,0.7,0.8,1,1.2s0.5,0.8,0.6,1.3
		c0.2,0.5,0.2,1.1,0.2,1.8c0,1.6-0.3,2.8-0.8,3.6c-0.5,0.8-1.3,1.2-2.5,1.2C101.5,16.8,100.6,16.5,100,15.7z"/>
</g>
</svg>
