<?xml version="1.0" encoding="utf-8"?>
<!-- Generator: Adobe Illustrator 22.0.0, SVG Export Plug-In . SVG Version: 6.00 Build 0)  -->
<svg version="1.1" id="Слой_1" xmlns="http://www.w3.org/2000/svg" xmlns:xlink="http://www.w3.org/1999/xlink" x="0px" y="0px"
	 viewBox="0 0 106.4 17.6" style="enable-background:new 0 0 106.4 17.6;" xml:space="preserve">
<style type="text/css">
	.st0{fill:#FFD80E;}
	.st1{fill:#FFFFFF;}
</style>
<g>
	<path class="st0" d="M1.2,15.7c-0.5-0.8-0.7-2-0.7-3.7V5.2c0-1.5,0.3-2.6,0.9-3.3c0.6-0.8,1.4-1.1,2.6-1.1c0.9,0,1.7,0.2,2.2,0.6
		s0.9,1,1.1,1.8C7.3,4,7.4,5,7.4,6.3H4.6V4.8c0-0.4,0-0.7-0.1-0.9S4.2,3.6,4,3.6C3.5,3.6,3.2,4,3.2,4.8v7.7c0,0.5,0.1,0.8,0.2,1.1
		S3.7,14,3.9,14s0.5-0.1,0.6-0.4s0.2-0.6,0.2-1.1v-2.3H3.9V7.5h3.4v9.3H6.2l-0.5-1.3c-0.5,1-1.3,1.5-2.3,1.5
		C2.4,16.9,1.7,16.5,1.2,15.7z"/>
	<path class="st0" d="M8.5,16.7V0.8h2.8v5.7h1.3V0.8h2.8v15.9h-2.8V9.5h-1.3v7.2H8.5z"/>
	<path class="st0" d="M16.7,16.7V0.8h5.6v3.1h-2.8V7h2.7v3h-2.7v3.6h3v3.1H16.7z"/>
	<path class="st0" d="M24.6,16.7V3.9H23V0.8h6.2v3.1h-1.7v12.8H24.6z"/>
	<path class="st0" d="M31.1,16.7V3.9h-1.7V0.8h6.2v3.1H34v12.8H31.1z"/>
	<path class="st0" d="M37.2,15.7c-0.6-0.8-0.9-1.9-0.9-3.3V4.8c0-1.4,0.3-2.4,0.9-3.1c0.6-0.7,1.5-1,2.6-1s2,0.3,2.6,1
		c0.6,0.7,0.9,1.7,0.9,3.1v7.6c0,1.4-0.3,2.5-0.9,3.3c-0.6,0.8-1.5,1.2-2.6,1.2S37.8,16.5,37.2,15.7z M40.3,13.6
		c0.1-0.2,0.1-0.6,0.1-1V4.8c0-0.3,0-0.6-0.1-0.8s-0.2-0.3-0.5-0.3c-0.5,0-0.7,0.4-0.7,1.2v7.8c0,0.5,0,0.8,0.1,1
		c0.1,0.2,0.3,0.4,0.5,0.4C40,14,40.2,13.9,40.3,13.6z"/>
	<path class="st1" d="M48.2,16.7V0.8H51v5.7h1.3V0.8h2.8v15.9h-2.8V9.5H51v7.2H48.2z"/>
	<path class="st1" d="M57.1,15.8c-0.6-0.7-0.8-1.8-0.8-3.3V0.8H59v11.5c0,0.5,0,0.9,0.1,1.2c0.1,0.3,0.3,0.4,0.6,0.4
		c0.3,0,0.5-0.1,0.6-0.4c0.1-0.3,0.1-0.7,0.1-1.2V0.8h2.7v11.6c0,1.5-0.3,2.6-0.8,3.3c-0.6,0.7-1.4,1.1-2.6,1.1
		C58.5,16.9,57.7,16.5,57.1,15.8z"/>
	<path class="st1" d="M64.8,15.8c-0.6-0.7-0.9-1.9-0.9-3.5v-1.6h2.8v2c0,0.8,0.2,1.2,0.7,1.2c0.3,0,0.4-0.1,0.5-0.3s0.1-0.4,0.1-0.8
		c0-0.5-0.1-0.9-0.2-1.3c-0.1-0.3-0.2-0.6-0.4-0.9c-0.2-0.2-0.5-0.6-0.9-1.1l-1.2-1.4c-0.9-1-1.4-2.2-1.4-3.4c0-1.4,0.3-2.4,0.8-3.1
		c0.6-0.7,1.4-1.1,2.4-1.1c1.3,0,2.2,0.4,2.7,1.1s0.8,1.9,0.8,3.6h-2.9l0-1.1c0-0.2-0.1-0.4-0.2-0.5c-0.1-0.1-0.2-0.2-0.4-0.2
		c-0.2,0-0.4,0.1-0.5,0.2c-0.1,0.1-0.2,0.3-0.2,0.6c0,0.5,0.3,1.1,0.8,1.6L69,7.8c0.4,0.4,0.7,0.8,1,1.2s0.5,0.8,0.6,1.3
		c0.2,0.5,0.2,1.1,0.2,1.8c0,1.6-0.3,2.8-0.8,3.6c-0.5,0.8-1.3,1.2-2.5,1.2C66.3,16.9,65.3,16.5,64.8,15.8z"/>
	<path class="st1" d="M73,16.7V3.9h-1.7V0.8h6.2v3.1h-1.7v12.8H73z"/>
	<path class="st1" d="M78.3,16.7V0.8h2.8V14H84v2.7H78.3z"/>
	<path class="st1" d="M84.8,16.7V0.8h5.6v3.1h-2.8V7h2.7v3h-2.7v3.6h3v3.1H84.8z"/>
	<path class="st1" d="M91.5,0.8h4.3c0.7,0,1.2,0.2,1.6,0.5c0.4,0.4,0.6,0.8,0.8,1.5c0.1,0.6,0.2,1.4,0.2,2.4c0,0.9-0.1,1.6-0.3,2.1
		c-0.2,0.5-0.6,0.9-1.1,1.1c0.4,0.1,0.7,0.3,0.9,0.7s0.3,0.9,0.3,1.6l0,6h-2.8v-6.2c0-0.4-0.1-0.7-0.2-0.9c-0.2-0.1-0.4-0.2-0.8-0.2
		v7.3h-2.9V0.8z M95.1,6.7c0.4,0,0.6-0.5,0.6-1.4c0-0.4,0-0.7,0-0.9S95.5,4,95.4,3.9c-0.1-0.1-0.2-0.1-0.4-0.1h-0.7v2.9H95.1z"/>
	<path class="st1" d="M99.9,15.8c-0.6-0.7-0.9-1.9-0.9-3.5v-1.6h2.8v2c0,0.8,0.2,1.2,0.7,1.2c0.3,0,0.4-0.1,0.5-0.3s0.1-0.4,0.1-0.8
		c0-0.5-0.1-0.9-0.2-1.3c-0.1-0.3-0.2-0.6-0.4-0.9c-0.2-0.2-0.5-0.6-0.9-1.1l-1.2-1.4c-0.9-1-1.4-2.2-1.4-3.4c0-1.4,0.3-2.4,0.8-3.1
		c0.6-0.7,1.4-1.1,2.4-1.1c1.3,0,2.2,0.4,2.7,1.1s0.8,1.9,0.8,3.6H103l0-1.1c0-0.2-0.1-0.4-0.2-0.5c-0.1-0.1-0.2-0.2-0.4-0.2
		c-0.2,0-0.4,0.1-0.5,0.2c-0.1,0.1-0.2,0.3-0.2,0.6c0,0.5,0.3,1.1,0.8,1.6l1.6,1.8c0.4,0.4,0.7,0.8,1,1.2s0.5,0.8,0.6,1.3
		c0.2,0.5,0.2,1.1,0.2,1.8c0,1.6-0.3,2.8-0.8,3.6c-0.5,0.8-1.3,1.2-2.5,1.2C101.4,16.9,100.5,16.5,99.9,15.8z"/>
</g>
</svg>
